<svg version="1.1" id="Layer_1" xmlns="http://www.w3.org/2000/svg" xmlns:xlink="http://www.w3.org/1999/xlink" x="0px" y="0px"
	 width="100%" viewBox="0 0 288 304" enable-background="new 0 0 288 304" xml:space="preserve">
<path fill="#ffffff" opacity="1.000000" stroke="none" 
	d="
M289.000000,237.550018 
	C279.987976,238.656403 271.545227,241.826813 262.881317,243.988831 
	C196.747467,260.492126 130.634415,277.078796 64.510155,293.620605 
	C62.507477,294.121613 60.372414,295.309357 58.752670,292.702667 
	C56.457268,289.008698 57.325409,286.727386 61.725109,285.614838 
	C92.677727,277.787598 123.625290,269.939728 154.598297,262.193848 
	C199.123886,251.058578 243.669693,240.004272 288.603455,228.957703 
	C289.000000,231.700012 289.000000,234.400024 289.000000,237.550018 
z"/>
<path fill="#ffffff" opacity="1.000000" stroke="none" 
	d="
M185.663162,122.337730 
	C177.423767,113.626762 169.439713,105.160339 161.455658,96.693909 
	C158.260971,98.581932 157.898697,100.541817 157.110458,102.102699 
	C152.080490,112.063171 147.001846,122.002220 142.192932,132.069504 
	C140.416595,135.788177 138.670105,136.137604 135.386551,133.767242 
	C125.664215,126.748802 115.776421,119.959312 105.938835,113.101067 
	C104.594513,112.163887 103.167755,111.344940 100.857666,109.891449 
	C91.509613,144.550385 82.325478,178.601562 72.733322,214.165527 
	C104.040031,206.250504 134.070831,198.658066 164.101639,191.065628 
	C164.381912,191.627930 164.662170,192.190231 164.942429,192.752518 
	C155.175354,204.366577 145.408264,215.980621 135.277130,228.027557 
	C131.793991,222.917923 132.796310,216.737427 129.857330,212.031296 
	C126.879395,211.806717 125.504967,213.998108 124.056824,215.627411 
	C115.290718,225.489990 104.904572,231.602753 91.506264,233.931717 
	C75.657433,236.686630 60.161861,241.466614 44.504292,245.332840 
	C38.590946,246.792984 38.003994,246.172195 39.655182,240.168274 
	C52.799122,192.375122 65.951080,144.584152 79.124969,96.799248 
	C86.684464,69.379135 94.276405,41.967922 101.908348,14.567915 
	C102.335060,13.035942 102.387703,11.223752 104.000870,10.126060 
	C106.162933,9.917862 107.159622,11.678405 108.397484,12.903674 
	C155.164444,59.194721 201.914032,105.503304 248.657364,151.818207 
	C253.452820,156.569687 253.384827,156.721771 248.938080,161.883453 
	C243.829895,167.812912 238.833603,173.838623 233.751297,179.790588 
	C232.480057,181.279373 231.483414,183.111191 229.235657,183.811447 
	C224.424515,180.401352 221.536514,174.797974 215.917068,171.255493 
	C209.461975,178.753906 203.144058,186.215576 196.667221,193.536636 
	C194.885101,195.551041 193.316620,199.814941 189.773972,196.938141 
	C186.102402,193.956696 190.182480,191.530167 191.819260,189.556335 
	C198.516388,181.480057 205.605957,173.730164 212.353928,165.694595 
	C215.007111,162.535187 217.285660,162.298447 220.161377,165.212921 
	C222.146210,167.224487 224.332214,169.041382 226.470978,170.896072 
	C228.120255,172.326324 229.534470,175.010605 232.213043,172.443024 
	C234.996780,169.774612 232.254730,168.333603 230.729691,166.822952 
	C215.817215,152.051254 200.861740,137.322922 185.663162,122.337730 
M109.723915,77.055641 
	C109.240067,78.820030 108.735420,80.579048 108.278603,82.350410 
	C107.876518,83.909515 106.866089,85.593781 108.690880,86.901665 
	C115.928604,92.089165 123.193260,97.239082 130.810425,102.660942 
	C134.374512,95.565475 137.405411,89.097755 140.852066,82.859764 
	C142.483231,79.907585 141.794434,78.093643 139.598923,75.965027 
	C132.904663,69.474709 126.369987,62.820080 119.729141,56.274101 
	C118.854240,55.411686 118.186218,54.010765 115.981224,54.472134 
	C114.022064,61.598221 112.001976,68.945915 109.723915,77.055641 
z"/>
<path fill="#ffffff" opacity="1.000000" stroke="none" 
	d="
M167.610504,198.613556 
	C172.966095,192.995071 177.430115,186.985138 183.453186,182.052704 
	C186.501572,186.333649 186.067947,191.040558 187.314651,195.248764 
	C188.132751,198.010193 187.271164,202.095047 190.589218,203.043121 
	C193.659058,203.920273 195.181732,200.271973 196.979782,198.258118 
	C202.302826,192.296158 207.525711,186.236618 212.574921,180.041748 
	C215.157196,176.873550 217.258682,176.891083 219.717484,180.005386 
	C221.263382,181.963440 222.984787,183.784683 224.654938,185.642593 
	C229.262741,190.768387 229.694809,190.686432 234.104340,185.611862 
	C240.548355,178.195953 247.226578,170.982071 253.605423,163.511688 
	C256.291229,160.366272 258.227081,160.301895 261.179321,163.309555 
	C268.490021,170.757492 276.120544,177.891510 283.532135,185.064133 
	C281.394073,188.467117 278.662048,188.428757 276.392487,189.007919 
	C249.159241,195.957779 221.894867,202.785446 194.648346,209.683441 
	C184.032059,212.371170 182.688705,211.604721 180.191132,201.052261 
	C179.966141,200.101669 179.680054,199.165558 179.157104,197.252441 
	C161.669861,213.830002 147.314789,232.585251 129.767899,248.741714 
	C125.542412,243.486008 126.004807,237.337067 123.320419,232.006683 
	C118.603233,235.533524 115.014038,239.866837 111.157478,243.903793 
	C107.016502,248.238510 102.798943,252.520416 98.946724,257.104309 
	C95.793968,260.855896 93.580910,260.030731 90.986359,255.865936 
	C102.357170,243.144867 113.758888,230.338608 127.072220,218.849731 
	C131.061020,224.030579 129.956833,230.128525 133.209015,235.602859 
	C145.338120,223.862335 155.866745,210.898178 167.610504,198.613556 
z"/>
</svg>